HIERARCHY
ROOT Hips
{
  OFFSET 267.745 86.9975 -272.335
  CHANNELS 6 Xposition Yposition Zposition Zrotation Xrotation Yrotation
  JOINT LeftUpLeg
  {
    OFFSET 8.64259 1.95398 -2.38835
    CHANNELS 3 Zrotation Xrotation Yrotation
    JOINT LeftLeg
    {
      OFFSET 43.7702 0 0
      CHANNELS 3 Zrotation Xrotation Yrotation
      JOINT LeftFoot
      {
        OFFSET 40.6238 0 0
        CHANNELS 3 Zrotation Xrotation Yrotation
        JOINT LeftToeBase
        {
          OFFSET 12.7242 0 0
          CHANNELS 3 Zrotation Xrotation Yrotation
          End Site
          {
            OFFSET 0 0 0
          }
        }
      }
    }
  }
  JOINT RightUpLeg
  {
    OFFSET -8.2249 1.95398 -2.59336
    CHANNELS 3 Zrotation Xrotation Yrotation
    JOINT RightLeg
    {
      OFFSET 43.5653 0 0
      CHANNELS 3 Zrotation Xrotation Yrotation
      JOINT RightFoot
      {
        OFFSET 40.6238 0 0
        CHANNELS 3 Zrotation Xrotation Yrotation
        JOINT RightToeBase
        {
          OFFSET 12.7242 0 0
          CHANNELS 3 Zrotation Xrotation Yrotation
          End Site
          {
            OFFSET 0 0 0
          }
        }
      }
    }
  }
  JOINT Spine
  {
    OFFSET 0.165834 0.87714 6.61349
    CHANNELS 3 Zrotation Xrotation Yrotation
    JOINT Spine1
    {
      OFFSET 7.38963 1.71661e-005 0
      CHANNELS 3 Zrotation Xrotation Yrotation
      JOINT Spine2
      {
        OFFSET 11.9445 1.14441e-005 0
        CHANNELS 3 Zrotation Xrotation Yrotation
        JOINT Spine3
        {
          OFFSET 14.7254 4.19617e-005 0
          CHANNELS 3 Zrotation Xrotation Yrotation
          JOINT Spine4
          {
            OFFSET 10.9679 0 0
            CHANNELS 3 Zrotation Xrotation Yrotation
            JOINT RightShoulder
            {
              OFFSET 2.46616 -1.6653 3.69651
              CHANNELS 3 Zrotation Xrotation Yrotation
              JOINT RightArm
              {
                OFFSET 13.0012 0 0
                CHANNELS 3 Zrotation Xrotation Yrotation
                JOINT RightForeArm
                {
                  OFFSET 28.7848 1.52588e-005 0
                  CHANNELS 3 Zrotation Xrotation Yrotation
                  JOINT RightHand
                  {
                    OFFSET 26.5688 1.52588e-005 0
                    CHANNELS 3 Zrotation Xrotation Yrotation
                    End Site
                    {
                      OFFSET 0 0 0
                    }
                  }
                }
              }
            }
            JOINT LeftShoulder
            {
              OFFSET 2.38034 -1.29275 -3.7523
              CHANNELS 3 Zrotation Xrotation Yrotation
              JOINT LeftArm
              {
                OFFSET 16.3182 6.10352e-005 0
                CHANNELS 3 Zrotation Xrotation Yrotation
                JOINT LeftForeArm
                {
                  OFFSET 27.0901 0 0
                  CHANNELS 3 Zrotation Xrotation Yrotation
                  JOINT LeftHand
                  {
                    OFFSET 24.5451 1.52588e-005 0
                    CHANNELS 3 Zrotation Xrotation Yrotation
                    End Site
                    {
                      OFFSET 0 0 0
                    }
                  }
                }
              }
            }
            JOINT Neck
            {
              OFFSET 5.0226 -0.0266342 0
              CHANNELS 3 Zrotation Xrotation Yrotation
              JOINT Head
              {
                OFFSET 6.69364 2.86102e-005 0
                CHANNELS 3 Zrotation Xrotation Yrotation
                End Site
                {
                  OFFSET 0 0 0
                }
              }
            }
          }
        }
      }
    }
  }
}
MOTION
Frames:	16
Frame Time:	0.0416667
105.757 91.5579 -108.344 -72.7821 -48.2614 -75.3348 -177.23 3.81222 90.4392 -25.6578 23.2742 4.22313 69.3987 17.9915 25.8846 58.1668 -1.93015 9.02486 167.58 50.5907 87.2382 -52.8699 -9.52136 4.41517 64.6207 3.61652 17.8743 60.5695 -7.49925 1.91288 -0.662624 9.60247 -90.214 7.66495 -1.41593 -0.34821 -4.00525 -1.4299 -0.28555 -26.5451 -1.24582 -0.757723 -6.53246 -1.24582 -0.757721 100.85 -49.9097 -84.2237 26.6555 3.28782 -9.90502 2.22756 -12.7014 -4.99867 -9.13919 -0.500908 1.06175 -86.9114 -49.9656 83.1089 -3.37737 4.30521 -27.7909 17.6357 8.86831 -55.9374 12.6487 -0.794496 -9.65666 24.4251 0.543479 -4.29659 -11.4873 1.51197 8.49041 
113.419 93.5558 -114.726 -73.2783 -47.348 -79.1508 -178.679 11.1404 85.2192 -26.7185 21.7338 2.43499 66.949 13.7792 25.1332 54.6501 -2.49888 3.50555 168.032 42.1525 85.302 -68.3369 -12.9675 1.61798 62.9863 2.98962 15.1736 61.7718 -7.59145 2.87222 -0.370199 9.6667 -89.7506 7.54547 -0.630703 0.520428 -4.12541 -0.6072 0.547678 -26.6619 -0.757985 0.306797 -6.64925 -0.757971 0.306807 100.413 -49.7062 -84.9127 28.1176 1.97121 -14.0152 2.54379 -10.1567 -6.42193 -11.5132 -0.69337 2.05755 -87.1648 -51.6911 83.0084 -6.28786 3.14067 -25.0256 15.9259 14.3347 -45.78 12.2095 -0.556981 -7.88763 18.8684 -0.808675 -4.15925 -5.82309 0.332197 9.61123 
118.905 95.2567 -118.815 -74.3783 -43.2308 -75.776 -178.047 16.4637 88.6148 -28.4871 20.2732 3.13072 66.4449 10.4305 22.9896 50.5391 -2.20935 2.93633 172.123 24.1494 90.7159 -64.818 -6.11892 0.0890942 62.9105 5.13048 24.3705 51.7766 -5.48609 1.64712 0.145085 9.20113 -90.0641 8.47178 0.261216 -0.143078 -3.19916 0.254655 -0.154454 -25.7345 0.292133 -0.0579573 -5.72186 0.292122 -0.0579627 101.312 -48.5685 -83.5225 26.6724 -7.95464 -16.9857 0.374196 -12.0136 -15.5763 -6.98323 -0.199304 -2.00054 -85.8501 -52.554 85.0736 -8.75994 7.35056 -11.8022 11.4375 21.5989 -34.6407 6.6252 -0.336508 -7.49536 14.5229 -0.809384 -7.79904 -7.30476 0.938543 12.0856 
124.63 95.6761 -123.931 -75.329 -39.3352 -79.6649 -177.415 21.6023 86.4912 -28.11 17.155 0.702586 64.6111 8.45049 21.2699 45.8249 -1.86068 1.30228 175.46 11.5408 88.5436 -44.3786 -10.1708 -0.731092 60.3535 6.67313 25.4022 51.4926 -4.51012 9.54611 0.355244 8.89384 -89.6569 9.082 0.861966 0.621044 -2.5888 0.888458 0.582494 -25.124 0.635461 0.851383 -5.11135 0.635476 0.851383 101.756 -49.3618 -82.8109 24.7248 -13.4399 -16.0667 -10.0904 -12.9698 -36.2524 -3.44502 -0.0402524 -4.91368 -85.2312 -51.4893 85.8463 -15.0495 8.06738 0.314364 14.8662 36.8716 -30.9661 3.12286 -0.182684 -6.59945 17.9769 -0.387725 -8.08699 -10.4635 1.33164 11.8891 
130.732 95.9454 -128.644 -76.1013 -38.8637 -81.8899 -177.502 25.838 85.1056 -26.7474 16.1375 -0.445548 60.6073 5.55437 20.0372 43.1087 -1.63144 -0.514793 175.712 4.93108 87.7822 -25.2628 -6.64373 -0.907102 58.9198 8.67548 27.6391 43.2008 -3.08368 9.32239 0.481916 8.89172 -89.6926 9.08772 1.09867 0.531203 -2.58287 1.12098 0.482331 -25.1198 0.888229 0.836851 -5.10715 0.888232 0.836851 101.591 -49.285 -83.0723 23.1334 -16.8131 -16.7496 -10.4504 -5.76713 -49.5627 -15.5966 -0.38949 -2.38822 -84.8957 -52.3512 86.4521 -18.5846 2.367 2.48088 10.8073 49.6746 -20.4845 -2.54882 -0.102004 -6.96701 21.0741 -0.342052 -5.50692 -11.7003 0.664245 11.8096 
136.461 96.2729 -133.42 -75.7739 -39.815 -82.0688 -176.271 29.9751 85.3829 -24.6831 17.4378 -1.55532 58.3019 2.43381 11.5275 47.4868 -1.80783 5.43342 175.112 8.05767 87.8373 -25.966 -1.27915 -0.0872638 70.185 5.74432 25.621 32.9342 -1.23626 4.02152 0.602791 8.68775 -89.9157 9.49845 1.23988 0.0739099 -2.1719 1.24194 0.0192644 -24.7114 1.16033 0.443169 -4.69873 1.16034 0.443188 101.847 -49.524 -82.6668 22.9518 -16.9831 -16.3018 -11.7642 -3.77374 -54.8543 -13.5772 -0.241075 -3.36563 -84.1069 -52.9542 87.6781 -20.0704 0.225046 -1.31907 -0.377521 53.4219 -6.33076 -6.96422 0.0205885 -6.9612 18.5002 -0.763525 -5.89767 -10.8605 0.323557 11.8017 
140.643 95.9574 -137.112 -78.7577 -43.3944 -83.9705 -175.824 31.9994 85.8863 -33.467 19.0396 -1.32604 56.8833 1.03222 7.25166 58.231 -1.46352 12.8415 175.216 9.09861 88.9321 -28.8641 0.451587 0.0805777 77.3675 3.25574 20.1465 26.1226 0.430051 2.02837 0.378603 8.61957 -90.0732 9.63548 0.721761 -0.201179 -2.03527 0.712219 -0.232757 -24.5721 0.748841 0.025052 -4.5594 0.748876 0.0250602 102.456 -49.9161 -81.7133 23.1504 -18.8608 -15.1942 -12.8118 -6.43187 -50.2451 -11.8426 -0.163358 -3.70738 -84.7258 -52.2494 86.6897 -20.1528 3.8671 -2.81293 1.89347 53.0457 -10.8679 -8.22121 0.120975 -8.50837 16.6257 -0.841762 -6.13603 -12.1321 0.184345 10.448 
143.341 96.5859 -139.228 -83.3083 -44.7629 -86.4996 -175.819 28.3728 87.0545 -47.8009 14.0204 0.349023 61.114 6.72235 12.6066 53.8138 -1.70883 10.5414 175.259 7.81338 88.9703 -28.8794 0.71852 -0.0205113 76.0946 5.19201 22.3469 22.7403 1.36618 0.960792 0.272445 8.41482 -90.1514 10.0449 0.474157 -0.340966 -1.626 0.458696 -0.361515 -24.1617 0.55469 -0.182715 -4.14907 0.554714 -0.182692 101.965 -51.3121 -82.4768 24.666 -18.6087 -10.6076 -12.6605 -13.3554 -40.7071 -10.8364 -0.337118 -1.64005 -84.032 -51.0992 87.5893 -20.7251 5.52035 -6.65259 3.74547 49.2499 -13.6378 -4.75104 -0.034352 -7.11751 14.0194 -0.685092 -7.05759 -14.2209 0.178135 11.2627 
145.658 97.1331 -140.306 -85.7196 -45.9468 -88.7282 -178.226 18.1039 86.0624 -44.793 13.0997 2.01283 60.69 7.09158 13.3038 56.8257 -1.77877 10.6118 175.106 8.29715 88.2856 -30.0661 0.495788 -0.175556 74.6256 4.27037 19.8772 24.1823 0.810951 2.59798 0.199355 8.0484 -90.0702 10.7755 0.364481 -0.176328 -0.895442 0.356382 -0.192201 -23.4309 0.400631 -0.0586364 -3.41827 0.40062 -0.0586387 102.346 -51.9789 -81.8944 27.4531 -12.6477 -7.0795 -7.92837 -22.2471 -26.0211 -11.5374 -0.43924 -0.809376 -84.0443 -51.1167 87.5721 -20.4603 5.08682 -11.6014 5.83162 42.0029 -16.4744 -0.819186 -0.140007 -7.77309 10.4471 -0.752715 -7.1935 -14.4947 -0.0297963 10.363 
147.631 97.5058 -140.866 -85.6412 -46.9863 -85.2487 -178.069 3.29419 91.979 -18.3507 19.9506 3.26696 58.8938 7.88454 19.3359 54.2033 -2.39449 3.9848 175.897 8.08314 91.2681 -27.2253 3.64047 0.148474 71.3906 5.52675 22.2776 24.5831 0.757435 2.26634 -0.00350476 7.53359 -90.4446 11.8091 -0.215755 -0.8565 0.137872 -0.253242 -0.84619 -22.3953 0.051618 -0.881759 -2.38261 0.0516324 -0.88175 101.991 -52.1422 -82.4327 28.6761 -4.08628 -5.56028 0.279343 -25.7319 -9.18385 -10.7038 -0.687992 2.44762 -83.4709 -51.9991 88.5187 -20.3349 6.58641 -13.2096 8.71493 31.7972 -23.9478 4.41017 -0.280185 -7.66345 7.74104 0.0712637 -7.38184 -14.8867 0.587993 10.6318 
149.247 98.8889 -142.08 -84.8662 -49.5669 -84.371 -175.319 0.363127 91.5869 -8.43194 21.126 3.35272 61.2405 4.47615 11.0655 42.4433 -1.52698 0.00351917 176.221 6.55213 91.7622 -20.7175 4.66735 0.228689 66.2619 5.28661 19.6896 26.6504 0.325741 1.8683 -0.364695 6.99024 -90.3866 12.8905 -0.909375 -0.663297 1.21974 -0.937699 -0.622636 -21.3156 -0.668 -0.905925 -1.30295 -0.668004 -0.905934 103.206 -53.2235 -80.6088 28.1104 4.03109 -2.93466 3.28572 -28.208 -0.219037 -11.5813 -1.05851 5.62397 -82.9294 -51.8775 89.3105 -21.4438 7.99543 -15.5253 16.872 35.4513 -31.983 0.383382 -0.185747 -8.32731 4.68989 0.0804971 -7.95231 -17.0578 0.401431 9.75917 
151.042 99.0981 -142.793 -84.0847 -49.6266 -84.3251 -175.218 1.78799 91.1277 -7.98538 23.6262 2.25189 59.9036 3.81339 13.3743 42.0063 -1.47782 -2.62427 176.091 8.01095 90.6449 -20.3341 6.10549 0.0369412 65.4444 6.9687 22.2197 23.7807 1.06117 1.36503 -0.234334 6.662 -90.1735 13.5487 -0.548638 -0.274079 1.87779 -0.560159 -0.249662 -20.6577 -0.440888 -0.426285 -0.645055 -0.440905 -0.426293 103.102 -52.4155 -80.75 30.6865 7.88564 2.89413 0.71997 -23.4844 -3.88912 -10.9479 -1.02033 5.51663 -83.1981 -50.9923 88.8259 -20.0861 11.2063 -18.0722 18.5464 32.9127 -36.7526 -4.69302 0.0235235 -10.0738 4.88678 -0.465034 -8.11352 -18.4447 -0.123749 9.02659 
152.857 99.2491 -143.669 -89.4331 -48.3615 -87.5459 -175.615 -0.0150539 90.635 -9.21164 23.097 3.07444 58.3667 3.66947 15.0779 43.0436 -1.61293 -2.06797 176.069 5.22213 90.8028 -19.2243 4.22767 -0.0389813 65.1121 6.74831 21.0178 22.4881 1.38411 1.30547 -0.0104195 7.00715 -90.2494 12.8593 -0.140124 -0.481022 1.18831 -0.161151 -0.47439 -21.3462 0.0109022 -0.500901 -1.33353 0.0109314 -0.500898 102.324 -52.616 -81.9313 30.3784 5.27364 2.964 -0.259105 -22.1953 -6.60402 -5.24736 -0.308343 2.2719 -84.1705 -51.6102 87.4355 -18.9211 11.9588 -18.2148 23.2066 31.8959 -42.1333 -3.22239 -0.0356239 -11.9069 4.55629 -0.313933 -5.78103 -16.435 -0.0878656 7.69464 
154.147 99.349 -144.213 -90.8779 -44.9575 -88.5357 -175.381 -0.707097 90.4126 -8.82128 20.6546 2.60072 57.9854 3.50354 15.8061 42.926 -1.59409 -1.73523 175.718 5.28761 90.0535 -18.8868 1.59198 0.197204 64.7549 6.54208 21.1026 20.4103 1.6181 2.84058 0.0416391 6.92104 -90.3096 13.0312 -0.0660564 -0.611202 1.3601 -0.0928856 -0.6077 -21.1739 0.120681 -0.602797 -1.16129 0.120683 -0.602799 103.094 -51.2219 -80.739 30.6498 1.25733 -1.05932 -1.6697 -27.3167 -9.3997 -4.9594 -0.340682 3.1586 -82.9005 -53.1454 89.4645 -19.7623 11.0074 -14.79 18.2409 29.6384 -37.9227 3.71126 -0.374434 -9.9674 3.88768 1.03161 -4.75768 -18.6266 0.727087 8.67793 
154.987 99.4242 -144.818 -92.6918 -42.7044 -89.5162 -174.523 -1.64344 90.7011 -8.48105 19.4002 2.05036 57.8615 3.23941 15.5311 42.7222 -1.56936 -1.91536 176.082 4.73895 90.1827 -18.5915 -0.139317 -0.129219 64.0235 6.53037 21.2852 20.0956 1.65928 3.03911 -0.00608523 6.92069 -90.3025 13.0317 -0.157526 -0.585732 1.36063 -0.183144 -0.578236 -21.1735 0.0257964 -0.605992 -1.16082 0.0257695 -0.606004 102.985 -52.4393 -80.9283 30.0395 -1.38669 -3.07494 -3.30413 -22.8855 -15.4631 -8.82912 -0.641157 3.44494 -82.6697 -52.8601 89.7777 -21.7454 8.50497 -12.5321 16.2865 36.5038 -31.9836 -2.08835 -0.102148 -9.05711 3.52519 1.51319 -7.13722 -18.6541 1.26952 11.2427 
155.797 99.5735 -145.263 -93.9075 -42.1863 -90.3508 -174.273 -2.16551 90.7512 -8.30148 19.4108 1.81775 57.7821 2.97595 15.2159 43.7169 -1.68445 -1.03072 175.819 4.3834 89.8568 -18.321 -1.55083 0.0314002 63.5584 6.51508 20.6207 19.4534 1.86784 2.68717 -0.0381648 6.91641 -90.35 13.0401 -0.243974 -0.67018 1.36903 -0.273227 -0.658799 -21.1648 -0.0312785 -0.712516 -1.15213 -0.031279 -0.712522 102.892 -52.1303 -81.0642 30.9159 -1.80135 -3.73346 -2.06924 -12.2473 -20.3849 -8.67897 -0.181325 -2.98475 -82.5279 -53.6123 90.0455 -23.8825 2.68346 -15.2228 5.20137 47.4881 -12.972 -2.36839 -0.0873686 -7.98855 4.4187 1.50057 -6.6086 -19.6615 1.17317 10.8433 
